<svg version="1.1" width="81" height="119" viewBox="1 -1 81 119" xmlns="http://www.w3.org/2000/svg" xmlns:xlink="http://www.w3.org/1999/xlink">
  <!-- Exported by Scratch - http://scratch.mit.edu/ -->
  <g id="ID0.8316534901969135" transform="matrix(0.8573749661445618, 0, 0, 0.8573749661445618, -0.05, 0.5)">
    <path id="ID0.8950433996506035" fill="#006666" stroke="#000000" stroke-width="1" stroke-linecap="round" d="M 80.400 254.600 C 84.156 254.154 88.716 257.938 89.750 261.250 C 91.954 268.141 92.277 275.901 90.250 283 C 89.600 285.277 85.603 284.516 83.250 284.250 C 80.365 283.919 76.328 284.110 75.500 281.500 C 73.651 275.670 75.450 269.360 76.750 263.500 C 77.463 260.301 77.687 255.284 80.400 254.600 Z " transform="matrix(1.4378383159637451, -0.3430267870426178, 0.45780909061431885, 1.641945719718933, -179.25, -384.2)"/>
    <path id="ID0.8537395023740828" fill="#FFFFFF" stroke="#000000" stroke-width="2" stroke-linecap="round" d="M 153.500 66.100 C 163.341 62.341 178.632 63.697 184.500 72.450 C 192.182 83.909 184.718 100.093 185.600 113.850 C 185.775 117.304 187.156 118.760 187.500 121.300 C 187.821 123.676 187.546 124.358 187.500 128.500 C 187.140 138.578 186.540 148.679 186 158.750 C 185.432 169.424 185.787 179.622 184 189.600 C 183.565 192.400 182.210 189.333 180.750 188.950 C 175.501 187.673 170.116 186.535 164.750 186 C 156.036 185.131 147.234 185.064 138.500 184.400 C 136.317 184.234 135.538 186.312 135.350 184.200 C 134.600 175.751 135.703 167.280 136.500 158.750 C 137.753 145.335 140.751 132.050 141.500 118.600 C 142.047 108.841 138.886 98.478 141.500 88.750 C 143.018 80.400 145.204 69.279 153.500 66.100 Z " transform="matrix(-1, 0, 0, 0.9097486138343811, 206.5, -57.1)"/>
    <g id="ID0.08513205265626311">
      <path id="ID0.8950433996506035" fill="#006666" stroke="#000000" stroke-width="1" stroke-linecap="round" d="M 83 255.750 C 85.817 255.186 89.068 258.382 89.750 261.250 C 91.682 268.209 92.277 275.901 90.250 283 C 89.600 285.277 85.603 284.516 83.250 284.250 C 80.365 283.919 76.328 284.110 75.500 281.500 C 73.651 275.670 75.105 269.276 76.750 263.500 C 77.697 260.148 79.753 256.400 83 255.750 Z " transform="matrix(1.4461100101470947, 0.3062877655029297, -0.29005545377731323, 1.6797150373458862, -24.25, -446.95)"/>
    </g>
  </g>
</svg>