<svg version="1.1" width="86" height="49" viewBox="4 3 86 49" xmlns="http://www.w3.org/2000/svg" xmlns:xlink="http://www.w3.org/1999/xlink">
  <!-- Exported by Scratch - http://scratch.mit.edu/ -->
  <g id="ID0.5856816666200757" transform="matrix(0.8573749661445618, 0, 0, 0.8573749661445618, 0.55, 0.05)">
    <path id="ID0.966071086935699" fill="#000000" stroke="#000000" stroke-width="2" stroke-linecap="round" d="M 150.750 332.500 L 141 344.750 L 145.750 346 L 152.250 339.250 L 150.750 332.500 Z " transform="matrix(-1, 0, 0, 1, 159.6, -307.75)"/>
    <path id="ID0.28506059385836124" fill="#666666" stroke="#000000" stroke-width="2" d="M 127.450 271.150 C 131.253 271.230 134.607 272.386 138.050 271.950 C 139.461 271.883 140.150 269.073 141.300 269.700 C 143.862 271.214 143.975 274.464 145.900 276.500 C 147.672 278.161 150.538 278.488 152.200 280.600 C 152.730 281.277 151.486 282.132 151.150 282.900 C 150.018 285.445 149.156 288.220 147.400 290.400 C 146.742 291.190 145.640 291.130 144.150 291.450 C 138.695 292.391 133.147 293.978 127.500 294 C 122.798 294.019 117.594 293.661 113.650 291.300 C 110.200 288.972 107.092 284.900 107 281 C 106.917 277.353 109.697 273.473 113 271.800 C 117.246 269.678 122.635 271.058 127.450 271.150 Z " transform="matrix(-0.8029194474220276, -0.5960875153541565, -0.5960875153541565, 0.8029194474220276, 299.25, -116.6)"/>
    <path id="ID0.28506059385836124" fill="#7F7F7F" stroke="#000000" stroke-width="2" d="M 127.450 271.150 C 131.253 271.230 134.582 272.655 138.050 271.950 C 140.044 271.543 140.891 268.558 142.900 268.050 C 143.879 267.804 143.762 269.777 144.400 270.250 C 146.577 271.443 149.328 271.544 151.100 272.900 C 152.358 273.899 152.892 275.661 153.650 277 C 154.179 277.903 155.075 278.967 154.700 279.950 C 153.249 283.750 151.182 287.562 148.450 290.450 C 147.094 291.884 144.707 291.730 142.750 292.100 C 136.870 293.141 130.779 295.178 124.700 294.850 C 120.090 294.584 115.070 293.284 111.450 290.350 C 108.096 287.438 104.870 282.977 105.200 278.500 C 105.484 275.103 109.762 272.949 113 271.800 C 117.538 270.193 122.635 271.058 127.450 271.150 Z " transform="matrix(-0.7285469174385071, -0.5408733487129211, -0.5228442549705505, 0.7042620182037354, 269.1, -98)"/>
    <path id="ID0.868237994145602" fill="none" stroke="#000000" stroke-width="2" stroke-linecap="round" d="M 136.500 326.900 L 136.500 326.900 Z " transform="matrix(-1, 0, 0, 1, 159.35, -308)"/>
    <path id="ID0.9931649724021554" fill="none" stroke="#000000" stroke-width="1" stroke-linecap="round" d="M 126.250 331 L 129.750 332.250 L 136.250 326.750 L 135.500 320.750 " transform="matrix(-1, 0, 0, 1, 159.35, -308)"/>
    <path id="ID0.7034772103652358" fill="none" stroke="#000000" stroke-width="1" stroke-linecap="round" d="M 141.750 343.250 L 137.250 337 L 144.750 329.500 L 148.750 323.500 " transform="matrix(-1, 0, 0, 1, 159.35, -308)"/>
    <g id="ID0.7672867947258055">
      <path id="ID0.485372981056571" fill="none" stroke="#000000" stroke-width="1" d="M 135.450 336.600 C 135.919 336.600 136.344 336.785 136.652 337.084 C 136.960 337.382 137.150 337.795 137.150 338.250 C 137.150 338.705 136.960 339.118 136.652 339.416 C 136.344 339.715 135.919 339.900 135.450 339.900 C 134.981 339.900 134.556 339.715 134.248 339.416 C 133.940 339.118 133.750 338.705 133.750 338.250 C 133.750 337.795 133.940 337.382 134.248 337.084 C 134.556 336.785 134.981 336.600 135.450 336.600 Z " transform="matrix(-0.8863636255264282, 0, 0, 0.8863636255264282, 140.6, -272.4)"/>
      <path id="ID0.485372981056571" fill="none" stroke="#000000" stroke-width="1" d="M 135.450 336.600 C 135.919 336.600 136.344 336.785 136.652 337.084 C 136.960 337.382 137.150 337.795 137.150 338.250 C 137.150 338.705 136.960 339.118 136.652 339.416 C 136.344 339.715 135.919 339.900 135.450 339.900 C 134.981 339.900 134.556 339.715 134.248 339.416 C 133.940 339.118 133.750 338.705 133.750 338.250 C 133.750 337.795 133.940 337.382 134.248 337.084 C 134.556 336.785 134.981 336.600 135.450 336.600 Z " transform="matrix(-0.8863636255264282, 0, 0, 0.8863636255264282, 137.1, -275.5)"/>
      <path id="ID0.485372981056571" fill="none" stroke="#000000" stroke-width="1" d="M 135.450 336.600 C 135.919 336.600 136.344 336.785 136.652 337.084 C 136.960 337.382 137.150 337.795 137.150 338.250 C 137.150 338.705 136.960 339.118 136.652 339.416 C 136.344 339.715 135.919 339.900 135.450 339.900 C 134.981 339.900 134.556 339.715 134.248 339.416 C 133.940 339.118 133.750 338.705 133.750 338.250 C 133.750 337.795 133.940 337.382 134.248 337.084 C 134.556 336.785 134.981 336.600 135.450 336.600 Z " transform="matrix(-0.8863636255264282, 0, 0, 0.8863636255264282, 145, -280.5)"/>
      <path id="ID0.485372981056571" fill="none" stroke="#000000" stroke-width="1" stroke-linecap="round" d="M 135.450 336.600 C 135.919 336.600 136.344 336.785 136.652 337.084 C 136.960 337.382 137.150 337.795 137.150 338.250 C 137.150 338.705 136.960 339.118 136.652 339.416 C 136.344 339.715 135.919 339.900 135.450 339.900 C 134.981 339.900 134.556 339.715 134.248 339.416 C 133.940 339.118 133.750 338.705 133.750 338.250 C 133.750 337.795 133.940 337.382 134.248 337.084 C 134.556 336.785 134.981 336.600 135.450 336.600 Z " transform="matrix(-0.8863636255264282, 0, 0, 0.8863636255264282, 148.75, -277.4)"/>
    </g>
    <path id="ID0.5520394304767251" fill="none" stroke="#000000" stroke-width="1" stroke-linecap="round" d="M 138.900 335.400 L 130.600 330.300 " transform="matrix(-1, 0, 0, 1, 159.35, -308)"/>
    <path id="ID0.5189701002091169" fill="none" stroke="#000000" stroke-width="1" stroke-linecap="round" d="M 142.400 332.250 L 134.400 327.400 " transform="matrix(-1, 0, 0, 1, 159.35, -308)"/>
    <path id="ID0.28506059385836124" fill="#666666" stroke="#000000" stroke-width="2" d="M 127.450 271.150 C 131.253 271.230 134.607 272.386 138.050 271.950 C 139.461 271.883 140.150 269.073 141.300 269.700 C 143.862 271.214 143.837 274.710 145.900 276.500 C 147.524 277.905 150.579 276.984 152.150 278.500 C 152.934 279.268 151.408 280.511 150.950 281.500 C 149.692 285.124 148.543 288.834 147 292.350 C 146.611 293.234 146.611 293.577 146.250 293.700 C 144.226 293.959 142.271 293.755 140.550 293.400 C 140.130 293.313 141.073 292.351 140 292.300 C 135.702 292.089 131.191 292.784 126.800 292.500 C 123.511 292.293 120.126 292.027 116.950 291 C 114.176 289.942 111.095 288.699 109.250 286.350 C 107.579 284.218 106.606 280.924 107.300 278.450 C 108.093 275.645 110.192 272.854 113 271.800 C 117.511 270.115 122.635 271.058 127.450 271.150 Z " transform="matrix(-0.8974288105964661, -0.4411592185497284, -0.4411592185497284, 0.8974288105964661, 306.65, -172.3)"/>
    <path id="ID0.28506059385836124" fill="#7F7F7F" stroke="#000000" stroke-width="2" d="M 127.450 271.150 C 131.253 271.230 134.552 272.465 138.050 271.950 C 139.187 271.778 138.825 269.166 140 268.850 C 141.783 268.379 143.872 268.856 145.300 269.950 C 146.792 271.078 146.550 273.939 147.900 275.450 C 149.275 276.986 152.473 276.406 153.350 278.200 C 154.067 279.850 152.350 281.705 151.800 283.450 C 150.723 285.774 149.612 288.147 148.450 290.450 C 147.983 291.355 149.407 292.885 147.450 293 C 139.111 293.660 130.636 293.188 122.550 292.400 C 119.002 292.054 115.380 291.257 112.200 289.650 C 109.845 288.457 107.662 286.816 106.250 284.750 C 105.077 282.719 103.851 279.908 104.850 278 C 106.456 274.994 109.769 272.869 113 271.800 C 117.571 270.292 122.635 271.058 127.450 271.150 Z " transform="matrix(-0.8143021464347839, -0.4002957046031952, -0.3869525194168091, 0.787158727645874, 280.25, -148.7)"/>
    <path id="ID0.868237994145602" fill="none" stroke="#000000" stroke-width="2" stroke-linecap="round" d="M 136.500 326.900 L 136.500 326.900 Z " transform="matrix(-0.9835326075553894, 0.18073080480098724, 0.18073080480098724, 0.9835326075553894, 134.35, -335.3)"/>
    <path id="ID0.7954719536937773" fill="none" stroke="#000000" stroke-width="1" stroke-linecap="round" d="M 108.050 318 L 106.300 322.750 L 95.750 329.750 L 98.250 338.250 " transform="matrix(-1, 0, 0, 1, 160.35, -308.5)"/>
    <g id="ID0.7672867947258055">
      <path id="ID0.485372981056571" fill="none" stroke="#000000" stroke-width="1" d="M 135.450 336.600 C 135.919 336.600 136.344 336.785 136.652 337.084 C 136.960 337.382 137.150 337.795 137.150 338.250 C 137.150 338.705 136.960 339.118 136.652 339.416 C 136.344 339.715 135.919 339.900 135.450 339.900 C 134.981 339.900 134.556 339.715 134.248 339.416 C 133.940 339.118 133.750 338.705 133.750 338.250 C 133.750 337.795 133.940 337.382 134.248 337.084 C 134.556 336.785 134.981 336.600 135.450 336.600 Z " transform="matrix(-0.871767520904541, 0.16019320487976074, 0.16019320487976074, 0.871767520904541, 126.65, -296.45)"/>
      <path id="ID0.485372981056571" fill="none" stroke="#000000" stroke-width="1" d="M 135.450 336.600 C 135.919 336.600 136.344 336.785 136.652 337.084 C 136.960 337.382 137.150 337.795 137.150 338.250 C 137.150 338.705 136.960 339.118 136.652 339.416 C 136.344 339.715 135.919 339.900 135.450 339.900 C 134.981 339.900 134.556 339.715 134.248 339.416 C 133.940 339.118 133.750 338.705 133.750 338.250 C 133.750 337.795 133.940 337.382 134.248 337.084 C 134.556 336.785 134.981 336.600 135.450 336.600 Z " transform="matrix(-0.871767520904541, 0.16019320487976074, 0.16019320487976074, 0.871767520904541, 122.65, -298.9)"/>
      <path id="ID0.485372981056571" fill="none" stroke="#000000" stroke-width="1" d="M 135.450 336.600 C 135.919 336.600 136.344 336.785 136.652 337.084 C 136.960 337.382 137.150 337.795 137.150 338.250 C 137.150 338.705 136.960 339.118 136.652 339.416 C 136.344 339.715 135.919 339.900 135.450 339.900 C 134.981 339.900 134.556 339.715 134.248 339.416 C 133.940 339.118 133.750 338.705 133.750 338.250 C 133.750 337.795 133.940 337.382 134.248 337.084 C 134.556 336.785 134.981 336.600 135.450 336.600 Z " transform="matrix(-0.871767520904541, 0.16019320487976074, 0.16019320487976074, 0.871767520904541, 129.55, -305.25)"/>
      <path id="ID0.485372981056571" fill="none" stroke="#000000" stroke-width="1" stroke-linecap="round" d="M 135.450 336.600 C 135.919 336.600 136.344 336.785 136.652 337.084 C 136.960 337.382 137.150 337.795 137.150 338.250 C 137.150 338.705 136.960 339.118 136.652 339.416 C 136.344 339.715 135.919 339.900 135.450 339.900 C 134.981 339.900 134.556 339.715 134.248 339.416 C 133.940 339.118 133.750 338.705 133.750 338.250 C 133.750 337.795 133.940 337.382 134.248 337.084 C 134.556 336.785 134.981 336.600 135.450 336.600 Z " transform="matrix(-0.871767520904541, 0.16019320487976074, 0.16019320487976074, 0.871767520904541, 133.8, -302.85)"/>
    </g>
    <path id="ID0.5520394304767251" fill="none" stroke="#000000" stroke-width="1" stroke-linecap="round" d="M 138.900 335.400 L 130.600 330.300 " transform="matrix(-0.9835326075553894, 0.18073080480098724, 0.18073080480098724, 0.9835326075553894, 138.6, -334.85)"/>
    <path id="ID0.5189701002091169" fill="none" stroke="#000000" stroke-width="1" stroke-linecap="round" d="M 142.400 332.250 L 134.400 327.400 " transform="matrix(-0.9835326075553894, 0.18073080480098724, 0.18073080480098724, 0.9835326075553894, 138.6, -334.85)"/>
  </g>
</svg>