<svg version="1.1" width="81" height="116" viewBox="1 0 81 116" xmlns="http://www.w3.org/2000/svg" xmlns:xlink="http://www.w3.org/1999/xlink">
  <!-- Exported by Scratch - http://scratch.mit.edu/ -->
  <g id="ID0.35134059004485607" transform="matrix(0.8573749661445618, 0, 0, 0.8573749661445618, -0.05, 0.25)">
    <path id="ID0.8950433996506035" fill="#CC99FF" stroke="#000000" stroke-width="1" stroke-linecap="round" d="M 80.400 254.600 C 84.156 254.154 88.716 257.938 89.750 261.250 C 91.954 268.141 92.277 275.901 90.250 283 C 89.600 285.277 85.603 284.516 83.250 284.250 C 80.365 283.919 76.328 284.110 75.500 281.500 C 73.651 275.670 75.450 269.360 76.750 263.500 C 77.463 260.301 77.687 255.284 80.400 254.600 Z " transform="matrix(1.4378383159637451, -0.3430267870426178, 0.45780909061431885, 1.641945719718933, -179.25, -385.4)"/>
    <g id="ID0.7572521781548858">
      <path id="ID0.48384885350242257" fill="#FFFF00" stroke="#000000" stroke-width="2" d="M 74.500 173.500 C 75.328 173.500 76.078 173.836 76.621 174.379 C 77.164 174.922 77.500 175.672 77.500 176.500 C 77.500 177.328 77.164 178.078 76.621 178.621 C 76.078 179.164 75.328 179.500 74.500 179.500 C 73.672 179.500 72.922 179.164 72.379 178.621 C 71.836 178.078 71.500 177.328 71.500 176.500 C 71.500 175.672 71.836 174.922 72.379 174.379 C 72.922 173.836 73.672 173.500 74.500 173.500 Z " transform="matrix(0.3772563338279724, -0.1259954869747162, -0.15749435126781464, -0.4715704321861267, 61.4, 107.95)"/>
      <path id="ID0.7823918559588492" fill="#00FF55" stroke="#000000" stroke-width="2" d="M 73 160.500 C 73.552 160.500 74.052 161.228 74.414 162.405 C 74.776 163.582 75 165.207 75 167 C 75 168.793 74.776 170.418 74.414 171.595 C 74.052 172.772 73.552 173.500 73 173.500 C 72.448 173.500 71.948 172.772 71.586 171.595 C 71.224 170.418 71 168.793 71 167 C 71 165.207 71.224 163.582 71.586 162.405 C 71.948 161.228 72.448 160.500 73 160.500 Z " transform="matrix(0.3772563338279724, -0.1259954869747162, -0.15749435126781464, -0.4715704321861267, 61.85, 108.05)"/>
      <path id="ID0.7823918559588492" fill="#00FF55" stroke="#000000" stroke-width="2" d="M 73 160.500 C 73.552 160.500 74.052 161.228 74.414 162.405 C 74.776 163.582 75 165.207 75 167 C 75 168.793 74.776 170.418 74.414 171.595 C 74.052 172.772 73.552 173.500 73 173.500 C 72.448 173.500 71.948 172.772 71.586 171.595 C 71.224 170.418 71 168.793 71 167 C 71 165.207 71.224 163.582 71.586 162.405 C 71.948 161.228 72.448 160.500 73 160.500 Z " transform="matrix(0.15259994566440582, -0.4243350625038147, -0.3792625367641449, -0.24123285710811615, 117.65, 89.2)"/>
      <path id="ID0.7823918559588492" fill="#00FF55" stroke="#000000" stroke-width="2" d="M 73 160.500 C 73.552 160.500 74.052 161.228 74.414 162.405 C 74.776 163.582 75 165.207 75 167 C 75 168.793 74.776 170.418 74.414 171.595 C 74.052 172.772 73.552 173.500 73 173.500 C 72.448 173.500 71.948 172.772 71.586 171.595 C 71.224 170.418 71 168.793 71 167 C 71 165.207 71.224 163.582 71.586 162.405 C 71.948 161.228 72.448 160.500 73 160.500 Z " transform="matrix(-0.17704008519649506, -0.46432286500930786, -0.36848828196525574, 0.15052497386932373, 139.7, 22.9)"/>
      <path id="ID0.7823918559588492" fill="#00FF55" stroke="#000000" stroke-width="2" d="M 73 160.500 C 73.552 160.500 74.052 161.228 74.414 162.405 C 74.776 163.582 75 165.207 75 167 C 75 168.793 74.776 170.418 74.414 171.595 C 74.052 172.772 73.552 173.500 73 173.500 C 72.448 173.500 71.948 172.772 71.586 171.595 C 71.224 170.418 71 168.793 71 167 C 71 165.207 71.224 163.582 71.586 162.405 C 71.948 161.228 72.448 160.500 73 160.500 Z " transform="matrix(-0.39204347133636475, 0.07439407706260681, 0.11588241904973984, 0.48240962624549866, 69.55, -75.4)"/>
      <path id="ID0.7823918559588492" fill="#00FF55" stroke="#000000" stroke-width="2" d="M 73 160.500 C 73.552 160.500 74.052 161.228 74.414 162.405 C 74.776 163.582 75 165.207 75 167 C 75 168.793 74.776 170.418 74.414 171.595 C 74.052 172.772 73.552 173.500 73 173.500 C 72.448 173.500 71.948 172.772 71.586 171.595 C 71.224 170.418 71 168.793 71 167 C 71 165.207 71.224 163.582 71.586 162.405 C 71.948 161.228 72.448 160.500 73 160.500 Z " transform="matrix(-0.3577066957950592, -0.29140880703926086, -0.1979210376739502, 0.39157938957214355, 122.55, -32.65)"/>
    </g>
    <path id="ID0.8537395023740828" fill="#CC99FF" stroke="#000000" stroke-width="2" stroke-linecap="round" d="M 151 68.450 C 161.471 64.504 177.703 63.513 184.500 72.450 C 192.847 83.427 184.718 100.093 185.600 113.850 C 185.775 117.304 187.156 118.760 187.500 121.300 C 187.821 123.676 187.546 124.358 187.500 128.500 C 187.140 138.578 186.540 148.679 186 158.750 C 185.432 169.424 185.787 179.622 184 189.600 C 183.565 192.400 182.210 189.333 180.750 188.950 C 175.501 187.673 170.116 186.535 164.750 186 C 156.036 185.131 147.234 185.064 138.500 184.400 C 136.317 184.234 135.538 186.312 135.350 184.200 C 134.600 175.751 135.703 167.280 136.500 158.750 C 137.753 145.335 140.262 132.016 141.500 118.600 C 142.430 108.526 141.108 98.124 143 88.150 C 144.326 81.171 144.342 70.985 151 68.450 Z " transform="matrix(-1, 0, 0, 0.9019826650619507, 206.5, -57.5)"/>
    <g id="ID0.7572521781548858">
      <path id="ID0.48384885350242257" fill="#FFFF00" stroke="#000000" stroke-width="2" d="M 74.500 173.500 C 75.328 173.500 76.078 173.836 76.621 174.379 C 77.164 174.922 77.500 175.672 77.500 176.500 C 77.500 177.328 77.164 178.078 76.621 178.621 C 76.078 179.164 75.328 179.500 74.500 179.500 C 73.672 179.500 72.922 179.164 72.379 178.621 C 71.836 178.078 71.500 177.328 71.500 176.500 C 71.500 175.672 71.836 174.922 72.379 174.379 C 72.922 173.836 73.672 173.500 74.500 173.500 Z " transform="matrix(-0.39774009585380554, 0, 0, 0.4971751272678375, 57.1, -35.95)"/>
      <path id="ID0.7823918559588492" fill="#00FF55" stroke="#000000" stroke-width="2" d="M 73 160.500 C 73.552 160.500 74.052 161.228 74.414 162.405 C 74.776 163.582 75 165.207 75 167 C 75 168.793 74.776 170.418 74.414 171.595 C 74.052 172.772 73.552 173.500 73 173.500 C 72.448 173.500 71.948 172.772 71.586 171.595 C 71.224 170.418 71 168.793 71 167 C 71 165.207 71.224 163.582 71.586 162.405 C 71.948 161.228 72.448 160.500 73 160.500 Z " transform="matrix(-0.39774009585380554, 0, 0, 0.4971751272678375, 56.7, -36.2)"/>
      <path id="ID0.7823918559588492" fill="#00FF55" stroke="#000000" stroke-width="2" d="M 73 160.500 C 73.552 160.500 74.052 161.228 74.414 162.405 C 74.776 163.582 75 165.207 75 167 C 75 168.793 74.776 170.418 74.414 171.595 C 74.052 172.772 73.552 173.500 73 173.500 C 72.448 173.500 71.948 172.772 71.586 171.595 C 71.224 170.418 71 168.793 71 167 C 71 165.207 71.224 163.582 71.586 162.405 C 71.948 161.228 72.448 160.500 73 160.500 Z " transform="matrix(-0.27916115522384644, 0.3541412353515625, 0.28331297636032104, 0.34895142912864685, -2.25, -36)"/>
      <path id="ID0.7823918559588492" fill="#00FF55" stroke="#000000" stroke-width="2" d="M 73 160.500 C 73.552 160.500 74.052 161.228 74.414 162.405 C 74.776 163.582 75 165.207 75 167 C 75 168.793 74.776 170.418 74.414 171.595 C 74.052 172.772 73.552 173.500 73 173.500 C 72.448 173.500 71.948 172.772 71.586 171.595 C 71.224 170.418 71 168.793 71 167 C 71 165.207 71.224 163.582 71.586 162.405 C 71.948 161.228 72.448 160.500 73 160.500 Z " transform="matrix(0.020834989845752716, 0.49649250507354736, 0.3971940279006958, -0.026043735444545746, -44.15, 19.9)"/>
      <path id="ID0.7823918559588492" fill="#00FF55" stroke="#000000" stroke-width="2" d="M 73 160.500 C 73.552 160.500 74.052 161.228 74.414 162.405 C 74.776 163.582 75 165.207 75 167 C 75 168.793 74.776 170.418 74.414 171.595 C 74.052 172.772 73.552 173.500 73 173.500 C 72.448 173.500 71.948 172.772 71.586 171.595 C 71.224 170.418 71 168.793 71 167 C 71 165.207 71.224 163.582 71.586 162.405 C 71.948 161.228 72.448 160.500 73 160.500 Z " transform="matrix(0.39541947841644287, 0.05362815409898758, 0.04290252551436424, -0.4942743480205536, -8.75, 135.4)"/>
      <path id="ID0.7823918559588492" fill="#00FF55" stroke="#000000" stroke-width="2" d="M 73 160.500 C 73.552 160.500 74.052 161.228 74.414 162.405 C 74.776 163.582 75 165.207 75 167 C 75 168.793 74.776 170.418 74.414 171.595 C 74.052 172.772 73.552 173.500 73 173.500 C 72.448 173.500 71.948 172.772 71.586 171.595 C 71.224 170.418 71 168.793 71 167 C 71 165.207 71.224 163.582 71.586 162.405 C 71.948 161.228 72.448 160.500 73 160.500 Z " transform="matrix(0.24697262048721313, 0.3897148668766022, 0.3117718994617462, -0.3087157607078552, -45.55, 78.05)"/>
      <path id="ID0.7823918559588492" fill="#00FF55" stroke="#000000" stroke-width="2" d="M 73 160.500 C 73.552 160.500 74.052 161.228 74.414 162.405 C 74.776 163.582 75 165.207 75 167 C 75 168.793 74.776 170.418 74.414 171.595 C 74.052 172.772 73.552 173.500 73 173.500 C 72.448 173.500 71.948 172.772 71.586 171.595 C 71.224 170.418 71 168.793 71 167 C 71 165.207 71.224 163.582 71.586 162.405 C 71.948 161.228 72.448 160.500 73 160.500 Z " transform="matrix(-0.24697262048721313, 0.3897148668766022, -0.3117718994617462, -0.3087157607078552, 100.4, 78.5)"/>
      <path id="ID0.7823918559588492" fill="#00FF55" stroke="#000000" stroke-width="2" d="M 73 160.500 C 73.552 160.500 74.052 161.228 74.414 162.405 C 74.776 163.582 75 165.207 75 167 C 75 168.793 74.776 170.418 74.414 171.595 C 74.052 172.772 73.552 173.500 73 173.500 C 72.448 173.500 71.948 172.772 71.586 171.595 C 71.224 170.418 71 168.793 71 167 C 71 165.207 71.224 163.582 71.586 162.405 C 71.948 161.228 72.448 160.500 73 160.500 Z " transform="matrix(-0.020834989845752716, 0.49649250507354736, -0.3971940279006958, -0.026043737307190895, 99.25, 20.2)"/>
      <path id="ID0.7823918559588492" fill="#00FF55" stroke="#000000" stroke-width="2" d="M 73 160.500 C 73.552 160.500 74.052 161.228 74.414 162.405 C 74.776 163.582 75 165.207 75 167 C 75 168.793 74.776 170.418 74.414 171.595 C 74.052 172.772 73.552 173.500 73 173.500 C 72.448 173.500 71.948 172.772 71.586 171.595 C 71.224 170.418 71 168.793 71 167 C 71 165.207 71.224 163.582 71.586 162.405 C 71.948 161.228 72.448 160.500 73 160.500 Z " transform="matrix(0.27916115522384644, 0.3541412353515625, -0.28331297636032104, 0.34895142912864685, 57.15, -35.75)"/>
    </g>
    <g id="ID0.7572521781548858">
      <path id="ID0.48384885350242257" fill="#FFFF00" stroke="#000000" stroke-width="2" d="M 74.500 173.500 C 75.328 173.500 76.078 173.836 76.621 174.379 C 77.164 174.922 77.500 175.672 77.500 176.500 C 77.500 177.328 77.164 178.078 76.621 178.621 C 76.078 179.164 75.328 179.500 74.500 179.500 C 73.672 179.500 72.922 179.164 72.379 178.621 C 71.836 178.078 71.500 177.328 71.500 176.500 C 71.500 175.672 71.836 174.922 72.379 174.379 C 72.922 173.836 73.672 173.500 74.500 173.500 Z " transform="matrix(-0.39774009585380554, 0, 0, 0.4971751272678375, 61.5, -70.7)"/>
      <path id="ID0.7823918559588492" fill="#00FF55" stroke="#000000" stroke-width="2" d="M 73 160.500 C 73.552 160.500 74.052 161.228 74.414 162.405 C 74.776 163.582 75 165.207 75 167 C 75 168.793 74.776 170.418 74.414 171.595 C 74.052 172.772 73.552 173.500 73 173.500 C 72.448 173.500 71.948 172.772 71.586 171.595 C 71.224 170.418 71 168.793 71 167 C 71 165.207 71.224 163.582 71.586 162.405 C 71.948 161.228 72.448 160.500 73 160.500 Z " transform="matrix(-0.39774009585380554, 0, 0, 0.4971751272678375, 61.1, -70.95)"/>
      <path id="ID0.7823918559588492" fill="#00FF55" stroke="#000000" stroke-width="2" d="M 73 160.500 C 73.552 160.500 74.052 161.228 74.414 162.405 C 74.776 163.582 75 165.207 75 167 C 75 168.793 74.776 170.418 74.414 171.595 C 74.052 172.772 73.552 173.500 73 173.500 C 72.448 173.500 71.948 172.772 71.586 171.595 C 71.224 170.418 71 168.793 71 167 C 71 165.207 71.224 163.582 71.586 162.405 C 71.948 161.228 72.448 160.500 73 160.500 Z " transform="matrix(-0.27916115522384644, 0.3541412353515625, 0.28331297636032104, 0.34895142912864685, 2.05, -70.75)"/>
      <path id="ID0.7823918559588492" fill="#00FF55" stroke="#000000" stroke-width="2" d="M 73 160.500 C 73.552 160.500 74.052 161.228 74.414 162.405 C 74.776 163.582 75 165.207 75 167 C 75 168.793 74.776 170.418 74.414 171.595 C 74.052 172.772 73.552 173.500 73 173.500 C 72.448 173.500 71.948 172.772 71.586 171.595 C 71.224 170.418 71 168.793 71 167 C 71 165.207 71.224 163.582 71.586 162.405 C 71.948 161.228 72.448 160.500 73 160.500 Z " transform="matrix(0.020834989845752716, 0.49649250507354736, 0.3971940279006958, -0.026043735444545746, -39.8, -14.8)"/>
      <path id="ID0.7823918559588492" fill="#00FF55" stroke="#000000" stroke-width="2" d="M 73 160.500 C 73.552 160.500 74.052 161.228 74.414 162.405 C 74.776 163.582 75 165.207 75 167 C 75 168.793 74.776 170.418 74.414 171.595 C 74.052 172.772 73.552 173.500 73 173.500 C 72.448 173.500 71.948 172.772 71.586 171.595 C 71.224 170.418 71 168.793 71 167 C 71 165.207 71.224 163.582 71.586 162.405 C 71.948 161.228 72.448 160.500 73 160.500 Z " transform="matrix(0.39541947841644287, 0.05362815409898758, 0.04290252551436424, -0.4942743480205536, -4.4, 100.65)"/>
      <path id="ID0.7823918559588492" fill="#00FF55" stroke="#000000" stroke-width="2" d="M 73 160.500 C 73.552 160.500 74.052 161.228 74.414 162.405 C 74.776 163.582 75 165.207 75 167 C 75 168.793 74.776 170.418 74.414 171.595 C 74.052 172.772 73.552 173.500 73 173.500 C 72.448 173.500 71.948 172.772 71.586 171.595 C 71.224 170.418 71 168.793 71 167 C 71 165.207 71.224 163.582 71.586 162.405 C 71.948 161.228 72.448 160.500 73 160.500 Z " transform="matrix(0.24697262048721313, 0.3897148668766022, 0.3117718994617462, -0.3087157607078552, -41.15, 43.3)"/>
      <path id="ID0.7823918559588492" fill="#00FF55" stroke="#000000" stroke-width="2" d="M 73 160.500 C 73.552 160.500 74.052 161.228 74.414 162.405 C 74.776 163.582 75 165.207 75 167 C 75 168.793 74.776 170.418 74.414 171.595 C 74.052 172.772 73.552 173.500 73 173.500 C 72.448 173.500 71.948 172.772 71.586 171.595 C 71.224 170.418 71 168.793 71 167 C 71 165.207 71.224 163.582 71.586 162.405 C 71.948 161.228 72.448 160.500 73 160.500 Z " transform="matrix(-0.24697262048721313, 0.3897148668766022, -0.3117718994617462, -0.3087157607078552, 104.8, 43.75)"/>
      <path id="ID0.7823918559588492" fill="#00FF55" stroke="#000000" stroke-width="2" d="M 73 160.500 C 73.552 160.500 74.052 161.228 74.414 162.405 C 74.776 163.582 75 165.207 75 167 C 75 168.793 74.776 170.418 74.414 171.595 C 74.052 172.772 73.552 173.500 73 173.500 C 72.448 173.500 71.948 172.772 71.586 171.595 C 71.224 170.418 71 168.793 71 167 C 71 165.207 71.224 163.582 71.586 162.405 C 71.948 161.228 72.448 160.500 73 160.500 Z " transform="matrix(-0.020834989845752716, 0.49649250507354736, -0.3971940279006958, -0.026043737307190895, 103.65, -14.5)"/>
      <path id="ID0.7823918559588492" fill="#00FF55" stroke="#000000" stroke-width="2" d="M 73 160.500 C 73.552 160.500 74.052 161.228 74.414 162.405 C 74.776 163.582 75 165.207 75 167 C 75 168.793 74.776 170.418 74.414 171.595 C 74.052 172.772 73.552 173.500 73 173.500 C 72.448 173.500 71.948 172.772 71.586 171.595 C 71.224 170.418 71 168.793 71 167 C 71 165.207 71.224 163.582 71.586 162.405 C 71.948 161.228 72.448 160.500 73 160.500 Z " transform="matrix(0.27916115522384644, 0.3541412353515625, -0.28331297636032104, 0.34895142912864685, 61.55, -70.5)"/>
    </g>
    <g id="ID0.08513205265626311">
      <path id="ID0.8950433996506035" fill="#CC99FF" stroke="#000000" stroke-width="1" stroke-linecap="round" d="M 83 255.750 C 85.817 255.186 89.068 258.382 89.750 261.250 C 91.682 268.209 92.277 275.901 90.250 283 C 89.600 285.277 85.603 284.516 83.250 284.250 C 80.365 283.919 76.328 284.110 75.500 281.500 C 73.651 275.670 75.105 269.276 76.750 263.500 C 77.697 260.148 79.753 256.400 83 255.750 Z " transform="matrix(1.4461100101470947, 0.3062877655029297, -0.29005545377731323, 1.6797150373458862, -24.25, -447.95)"/>
    </g>
    <g id="ID0.7572521781548858">
      <path id="ID0.48384885350242257" fill="#FFFF00" stroke="#000000" stroke-width="2" d="M 74.500 173.500 C 75.328 173.500 76.078 173.836 76.621 174.379 C 77.164 174.922 77.500 175.672 77.500 176.500 C 77.500 177.328 77.164 178.078 76.621 178.621 C 76.078 179.164 75.328 179.500 74.500 179.500 C 73.672 179.500 72.922 179.164 72.379 178.621 C 71.836 178.078 71.500 177.328 71.500 176.500 C 71.500 175.672 71.836 174.922 72.379 174.379 C 72.922 173.836 73.672 173.500 74.500 173.500 Z " transform="matrix(-0.39774009585380554, 0, 0, 0.4971751272678375, 86.4, 6.4)"/>
      <path id="ID0.7823918559588492" fill="#00FF55" stroke="#000000" stroke-width="2" d="M 73 160.500 C 73.552 160.500 74.052 161.228 74.414 162.405 C 74.776 163.582 75 165.207 75 167 C 75 168.793 74.776 170.418 74.414 171.595 C 74.052 172.772 73.552 173.500 73 173.500 C 72.448 173.500 71.948 172.772 71.586 171.595 C 71.224 170.418 71 168.793 71 167 C 71 165.207 71.224 163.582 71.586 162.405 C 71.948 161.228 72.448 160.500 73 160.500 Z " transform="matrix(-0.39774009585380554, 0, 0, 0.4971751272678375, 86.05, 6.15)"/>
      <path id="ID0.7823918559588492" fill="#00FF55" stroke="#000000" stroke-width="2" d="M 73 160.500 C 73.552 160.500 74.052 161.228 74.414 162.405 C 74.776 163.582 75 165.207 75 167 C 75 168.793 74.776 170.418 74.414 171.595 C 74.052 172.772 73.552 173.500 73 173.500 C 72.448 173.500 71.948 172.772 71.586 171.595 C 71.224 170.418 71 168.793 71 167 C 71 165.207 71.224 163.582 71.586 162.405 C 71.948 161.228 72.448 160.500 73 160.500 Z " transform="matrix(-0.27916115522384644, 0.3541412353515625, 0.28331297636032104, 0.34895142912864685, 27.1, 6.35)"/>
      <path id="ID0.7823918559588492" fill="#00FF55" stroke="#000000" stroke-width="2" d="M 73 160.500 C 73.552 160.500 74.052 161.228 74.414 162.405 C 74.776 163.582 75 165.207 75 167 C 75 168.793 74.776 170.418 74.414 171.595 C 74.052 172.772 73.552 173.500 73 173.500 C 72.448 173.500 71.948 172.772 71.586 171.595 C 71.224 170.418 71 168.793 71 167 C 71 165.207 71.224 163.582 71.586 162.405 C 71.948 161.228 72.448 160.500 73 160.500 Z " transform="matrix(0.020834989845752716, 0.49649250507354736, 0.3971940279006958, -0.026043735444545746, -14.75, 62.3)"/>
      <path id="ID0.7823918559588492" fill="#00FF55" stroke="#000000" stroke-width="2" d="M 73 160.500 C 73.552 160.500 74.052 161.228 74.414 162.405 C 74.776 163.582 75 165.207 75 167 C 75 168.793 74.776 170.418 74.414 171.595 C 74.052 172.772 73.552 173.500 73 173.500 C 72.448 173.500 71.948 172.772 71.586 171.595 C 71.224 170.418 71 168.793 71 167 C 71 165.207 71.224 163.582 71.586 162.405 C 71.948 161.228 72.448 160.500 73 160.500 Z " transform="matrix(0.39541947841644287, 0.05362815409898758, 0.04290252551436424, -0.4942743480205536, 20.6, 177.8)"/>
      <path id="ID0.7823918559588492" fill="#00FF55" stroke="#000000" stroke-width="2" d="M 73 160.500 C 73.552 160.500 74.052 161.228 74.414 162.405 C 74.776 163.582 75 165.207 75 167 C 75 168.793 74.776 170.418 74.414 171.595 C 74.052 172.772 73.552 173.500 73 173.500 C 72.448 173.500 71.948 172.772 71.586 171.595 C 71.224 170.418 71 168.793 71 167 C 71 165.207 71.224 163.582 71.586 162.405 C 71.948 161.228 72.448 160.500 73 160.500 Z " transform="matrix(0.24697262048721313, 0.3897148668766022, 0.3117718994617462, -0.3087157607078552, -16.15, 120.45)"/>
      <path id="ID0.7823918559588492" fill="#00FF55" stroke="#000000" stroke-width="2" d="M 73 160.500 C 73.552 160.500 74.052 161.228 74.414 162.405 C 74.776 163.582 75 165.207 75 167 C 75 168.793 74.776 170.418 74.414 171.595 C 74.052 172.772 73.552 173.500 73 173.500 C 72.448 173.500 71.948 172.772 71.586 171.595 C 71.224 170.418 71 168.793 71 167 C 71 165.207 71.224 163.582 71.586 162.405 C 71.948 161.228 72.448 160.500 73 160.500 Z " transform="matrix(-0.24697262048721313, 0.3897148668766022, -0.3117718994617462, -0.3087157607078552, 129.8, 120.9)"/>
      <path id="ID0.7823918559588492" fill="#00FF55" stroke="#000000" stroke-width="2" d="M 73 160.500 C 73.552 160.500 74.052 161.228 74.414 162.405 C 74.776 163.582 75 165.207 75 167 C 75 168.793 74.776 170.418 74.414 171.595 C 74.052 172.772 73.552 173.500 73 173.500 C 72.448 173.500 71.948 172.772 71.586 171.595 C 71.224 170.418 71 168.793 71 167 C 71 165.207 71.224 163.582 71.586 162.405 C 71.948 161.228 72.448 160.500 73 160.500 Z " transform="matrix(-0.020834989845752716, 0.49649250507354736, -0.3971940279006958, -0.026043737307190895, 128.65, 62.6)"/>
      <path id="ID0.7823918559588492" fill="#00FF55" stroke="#000000" stroke-width="2" d="M 73 160.500 C 73.552 160.500 74.052 161.228 74.414 162.405 C 74.776 163.582 75 165.207 75 167 C 75 168.793 74.776 170.418 74.414 171.595 C 74.052 172.772 73.552 173.500 73 173.500 C 72.448 173.500 71.948 172.772 71.586 171.595 C 71.224 170.418 71 168.793 71 167 C 71 165.207 71.224 163.582 71.586 162.405 C 71.948 161.228 72.448 160.500 73 160.500 Z " transform="matrix(0.27916115522384644, 0.3541412353515625, -0.28331297636032104, 0.34895142912864685, 86.5, 6.6)"/>
    </g>
    <g id="ID0.7572521781548858">
      <path id="ID0.48384885350242257" fill="#FFFF00" stroke="#000000" stroke-width="2" d="M 74.500 173.500 C 75.328 173.500 76.078 173.836 76.621 174.379 C 77.164 174.922 77.500 175.672 77.500 176.500 C 77.500 177.328 77.164 178.078 76.621 178.621 C 76.078 179.164 75.328 179.500 74.500 179.500 C 73.672 179.500 72.922 179.164 72.379 178.621 C 71.836 178.078 71.500 177.328 71.500 176.500 C 71.500 175.672 71.836 174.922 72.379 174.379 C 72.922 173.836 73.672 173.500 74.500 173.500 Z " transform="matrix(-0.39774009585380554, 0, 0, 0.4971751272678375, 60.35, -2.5)"/>
      <path id="ID0.7823918559588492" fill="#00FF55" stroke="#000000" stroke-width="2" d="M 73 160.500 C 73.552 160.500 74.052 161.228 74.414 162.405 C 74.776 163.582 75 165.207 75 167 C 75 168.793 74.776 170.418 74.414 171.595 C 74.052 172.772 73.552 173.500 73 173.500 C 72.448 173.500 71.948 172.772 71.586 171.595 C 71.224 170.418 71 168.793 71 167 C 71 165.207 71.224 163.582 71.586 162.405 C 71.948 161.228 72.448 160.500 73 160.500 Z " transform="matrix(-0.39774009585380554, 0, 0, 0.4971751272678375, 59.95, -2.75)"/>
      <path id="ID0.7823918559588492" fill="#00FF55" stroke="#000000" stroke-width="2" d="M 73 160.500 C 73.552 160.500 74.052 161.228 74.414 162.405 C 74.776 163.582 75 165.207 75 167 C 75 168.793 74.776 170.418 74.414 171.595 C 74.052 172.772 73.552 173.500 73 173.500 C 72.448 173.500 71.948 172.772 71.586 171.595 C 71.224 170.418 71 168.793 71 167 C 71 165.207 71.224 163.582 71.586 162.405 C 71.948 161.228 72.448 160.500 73 160.500 Z " transform="matrix(-0.27916115522384644, 0.3541412353515625, 0.28331297636032104, 0.34895142912864685, 0.95, -2.55)"/>
      <path id="ID0.7823918559588492" fill="#00FF55" stroke="#000000" stroke-width="2" d="M 73 160.500 C 73.552 160.500 74.052 161.228 74.414 162.405 C 74.776 163.582 75 165.207 75 167 C 75 168.793 74.776 170.418 74.414 171.595 C 74.052 172.772 73.552 173.500 73 173.500 C 72.448 173.500 71.948 172.772 71.586 171.595 C 71.224 170.418 71 168.793 71 167 C 71 165.207 71.224 163.582 71.586 162.405 C 71.948 161.228 72.448 160.500 73 160.500 Z " transform="matrix(0.020834989845752716, 0.49649250507354736, 0.3971940279006958, -0.026043735444545746, -40.95, 53.35)"/>
      <path id="ID0.7823918559588492" fill="#00FF55" stroke="#000000" stroke-width="2" d="M 73 160.500 C 73.552 160.500 74.052 161.228 74.414 162.405 C 74.776 163.582 75 165.207 75 167 C 75 168.793 74.776 170.418 74.414 171.595 C 74.052 172.772 73.552 173.500 73 173.500 C 72.448 173.500 71.948 172.772 71.586 171.595 C 71.224 170.418 71 168.793 71 167 C 71 165.207 71.224 163.582 71.586 162.405 C 71.948 161.228 72.448 160.500 73 160.500 Z " transform="matrix(0.39541947841644287, 0.05362815409898758, 0.04290252551436424, -0.4942743480205536, -5.5, 168.85)"/>
      <path id="ID0.7823918559588492" fill="#00FF55" stroke="#000000" stroke-width="2" d="M 73 160.500 C 73.552 160.500 74.052 161.228 74.414 162.405 C 74.776 163.582 75 165.207 75 167 C 75 168.793 74.776 170.418 74.414 171.595 C 74.052 172.772 73.552 173.500 73 173.500 C 72.448 173.500 71.948 172.772 71.586 171.595 C 71.224 170.418 71 168.793 71 167 C 71 165.207 71.224 163.582 71.586 162.405 C 71.948 161.228 72.448 160.500 73 160.500 Z " transform="matrix(0.24697262048721313, 0.3897148668766022, 0.3117718994617462, -0.3087157607078552, -42.3, 111.5)"/>
      <path id="ID0.7823918559588492" fill="#00FF55" stroke="#000000" stroke-width="2" d="M 73 160.500 C 73.552 160.500 74.052 161.228 74.414 162.405 C 74.776 163.582 75 165.207 75 167 C 75 168.793 74.776 170.418 74.414 171.595 C 74.052 172.772 73.552 173.500 73 173.500 C 72.448 173.500 71.948 172.772 71.586 171.595 C 71.224 170.418 71 168.793 71 167 C 71 165.207 71.224 163.582 71.586 162.405 C 71.948 161.228 72.448 160.500 73 160.500 Z " transform="matrix(-0.24697262048721313, 0.3897148668766022, -0.3117718994617462, -0.3087157607078552, 103.65, 111.95)"/>
      <path id="ID0.7823918559588492" fill="#00FF55" stroke="#000000" stroke-width="2" d="M 73 160.500 C 73.552 160.500 74.052 161.228 74.414 162.405 C 74.776 163.582 75 165.207 75 167 C 75 168.793 74.776 170.418 74.414 171.595 C 74.052 172.772 73.552 173.500 73 173.500 C 72.448 173.500 71.948 172.772 71.586 171.595 C 71.224 170.418 71 168.793 71 167 C 71 165.207 71.224 163.582 71.586 162.405 C 71.948 161.228 72.448 160.500 73 160.500 Z " transform="matrix(-0.020834989845752716, 0.49649250507354736, -0.3971940279006958, -0.026043737307190895, 102.5, 53.65)"/>
      <path id="ID0.7823918559588492" fill="#00FF55" stroke="#000000" stroke-width="2" d="M 73 160.500 C 73.552 160.500 74.052 161.228 74.414 162.405 C 74.776 163.582 75 165.207 75 167 C 75 168.793 74.776 170.418 74.414 171.595 C 74.052 172.772 73.552 173.500 73 173.500 C 72.448 173.500 71.948 172.772 71.586 171.595 C 71.224 170.418 71 168.793 71 167 C 71 165.207 71.224 163.582 71.586 162.405 C 71.948 161.228 72.448 160.500 73 160.500 Z " transform="matrix(0.27916115522384644, 0.3541412353515625, -0.28331297636032104, 0.34895142912864685, 60.4, -2.3)"/>
    </g>
    <g id="ID0.7572521781548858">
      <path id="ID0.48384885350242257" fill="#FFFF00" stroke="#000000" stroke-width="2" d="M 74.500 173.500 C 75.328 173.500 76.078 173.836 76.621 174.379 C 77.164 174.922 77.500 175.672 77.500 176.500 C 77.500 177.328 77.164 178.078 76.621 178.621 C 76.078 179.164 75.328 179.500 74.500 179.500 C 73.672 179.500 72.922 179.164 72.379 178.621 C 71.836 178.078 71.500 177.328 71.500 176.500 C 71.500 175.672 71.836 174.922 72.379 174.379 C 72.922 173.836 73.672 173.500 74.500 173.500 Z " transform="matrix(-0.39774009585380554, 0, 0, 0.4971751272678375, 77.2, -24.05)"/>
      <path id="ID0.7823918559588492" fill="#00FF55" stroke="#000000" stroke-width="2" d="M 73 160.500 C 73.552 160.500 74.052 161.228 74.414 162.405 C 74.776 163.582 75 165.207 75 167 C 75 168.793 74.776 170.418 74.414 171.595 C 74.052 172.772 73.552 173.500 73 173.500 C 72.448 173.500 71.948 172.772 71.586 171.595 C 71.224 170.418 71 168.793 71 167 C 71 165.207 71.224 163.582 71.586 162.405 C 71.948 161.228 72.448 160.500 73 160.500 Z " transform="matrix(-0.39774009585380554, 0, 0, 0.4971751272678375, 76.8, -24.3)"/>
      <path id="ID0.7823918559588492" fill="#00FF55" stroke="#000000" stroke-width="2" d="M 73 160.500 C 73.552 160.500 74.052 161.228 74.414 162.405 C 74.776 163.582 75 165.207 75 167 C 75 168.793 74.776 170.418 74.414 171.595 C 74.052 172.772 73.552 173.500 73 173.500 C 72.448 173.500 71.948 172.772 71.586 171.595 C 71.224 170.418 71 168.793 71 167 C 71 165.207 71.224 163.582 71.586 162.405 C 71.948 161.228 72.448 160.500 73 160.500 Z " transform="matrix(-0.27916115522384644, 0.3541412353515625, 0.28331297636032104, 0.34895142912864685, 17.8, -24.1)"/>
      <path id="ID0.7823918559588492" fill="#00FF55" stroke="#000000" stroke-width="2" d="M 73 160.500 C 73.552 160.500 74.052 161.228 74.414 162.405 C 74.776 163.582 75 165.207 75 167 C 75 168.793 74.776 170.418 74.414 171.595 C 74.052 172.772 73.552 173.500 73 173.500 C 72.448 173.500 71.948 172.772 71.586 171.595 C 71.224 170.418 71 168.793 71 167 C 71 165.207 71.224 163.582 71.586 162.405 C 71.948 161.228 72.448 160.500 73 160.500 Z " transform="matrix(0.020834989845752716, 0.49649250507354736, 0.3971940279006958, -0.026043735444545746, -24, 31.8)"/>
      <path id="ID0.7823918559588492" fill="#00FF55" stroke="#000000" stroke-width="2" d="M 73 160.500 C 73.552 160.500 74.052 161.228 74.414 162.405 C 74.776 163.582 75 165.207 75 167 C 75 168.793 74.776 170.418 74.414 171.595 C 74.052 172.772 73.552 173.500 73 173.500 C 72.448 173.500 71.948 172.772 71.586 171.595 C 71.224 170.418 71 168.793 71 167 C 71 165.207 71.224 163.582 71.586 162.405 C 71.948 161.228 72.448 160.500 73 160.500 Z " transform="matrix(0.39541947841644287, 0.05362815409898758, 0.04290252551436424, -0.4942743480205536, 11.3, 147.3)"/>
      <path id="ID0.7823918559588492" fill="#00FF55" stroke="#000000" stroke-width="2" d="M 73 160.500 C 73.552 160.500 74.052 161.228 74.414 162.405 C 74.776 163.582 75 165.207 75 167 C 75 168.793 74.776 170.418 74.414 171.595 C 74.052 172.772 73.552 173.500 73 173.500 C 72.448 173.500 71.948 172.772 71.586 171.595 C 71.224 170.418 71 168.793 71 167 C 71 165.207 71.224 163.582 71.586 162.405 C 71.948 161.228 72.448 160.500 73 160.500 Z " transform="matrix(0.24697262048721313, 0.3897148668766022, 0.3117718994617462, -0.3087157607078552, -25.4, 89.95)"/>
      <path id="ID0.7823918559588492" fill="#00FF55" stroke="#000000" stroke-width="2" d="M 73 160.500 C 73.552 160.500 74.052 161.228 74.414 162.405 C 74.776 163.582 75 165.207 75 167 C 75 168.793 74.776 170.418 74.414 171.595 C 74.052 172.772 73.552 173.500 73 173.500 C 72.448 173.500 71.948 172.772 71.586 171.595 C 71.224 170.418 71 168.793 71 167 C 71 165.207 71.224 163.582 71.586 162.405 C 71.948 161.228 72.448 160.500 73 160.500 Z " transform="matrix(-0.24697262048721313, 0.3897148668766022, -0.3117718994617462, -0.3087157607078552, 120.55, 90.4)"/>
      <path id="ID0.7823918559588492" fill="#00FF55" stroke="#000000" stroke-width="2" d="M 73 160.500 C 73.552 160.500 74.052 161.228 74.414 162.405 C 74.776 163.582 75 165.207 75 167 C 75 168.793 74.776 170.418 74.414 171.595 C 74.052 172.772 73.552 173.500 73 173.500 C 72.448 173.500 71.948 172.772 71.586 171.595 C 71.224 170.418 71 168.793 71 167 C 71 165.207 71.224 163.582 71.586 162.405 C 71.948 161.228 72.448 160.500 73 160.500 Z " transform="matrix(-0.020834989845752716, 0.49649250507354736, -0.3971940279006958, -0.026043737307190895, 119.4, 32.1)"/>
      <path id="ID0.7823918559588492" fill="#00FF55" stroke="#000000" stroke-width="2" d="M 73 160.500 C 73.552 160.500 74.052 161.228 74.414 162.405 C 74.776 163.582 75 165.207 75 167 C 75 168.793 74.776 170.418 74.414 171.595 C 74.052 172.772 73.552 173.500 73 173.500 C 72.448 173.500 71.948 172.772 71.586 171.595 C 71.224 170.418 71 168.793 71 167 C 71 165.207 71.224 163.582 71.586 162.405 C 71.948 161.228 72.448 160.500 73 160.500 Z " transform="matrix(0.27916115522384644, 0.3541412353515625, -0.28331297636032104, 0.34895142912864685, 77.25, -23.85)"/>
    </g>
    <g id="ID0.7572521781548858">
      <path id="ID0.48384885350242257" fill="#FFFF00" stroke="#000000" stroke-width="2" d="M 74.500 173.500 C 75.328 173.500 76.078 173.836 76.621 174.379 C 77.164 174.922 77.500 175.672 77.500 176.500 C 77.500 177.328 77.164 178.078 76.621 178.621 C 76.078 179.164 75.328 179.500 74.500 179.500 C 73.672 179.500 72.922 179.164 72.379 178.621 C 71.836 178.078 71.500 177.328 71.500 176.500 C 71.500 175.672 71.836 174.922 72.379 174.379 C 72.922 173.836 73.672 173.500 74.500 173.500 Z " transform="matrix(-0.39774009585380554, 0, 0, 0.4971751272678375, 84.05, -62.95)"/>
      <path id="ID0.7823918559588492" fill="#00FF55" stroke="#000000" stroke-width="2" d="M 73 160.500 C 73.552 160.500 74.052 161.228 74.414 162.405 C 74.776 163.582 75 165.207 75 167 C 75 168.793 74.776 170.418 74.414 171.595 C 74.052 172.772 73.552 173.500 73 173.500 C 72.448 173.500 71.948 172.772 71.586 171.595 C 71.224 170.418 71 168.793 71 167 C 71 165.207 71.224 163.582 71.586 162.405 C 71.948 161.228 72.448 160.500 73 160.500 Z " transform="matrix(-0.39774009585380554, 0, 0, 0.4971751272678375, 83.7, -63.2)"/>
      <path id="ID0.7823918559588492" fill="#00FF55" stroke="#000000" stroke-width="2" d="M 73 160.500 C 73.552 160.500 74.052 161.228 74.414 162.405 C 74.776 163.582 75 165.207 75 167 C 75 168.793 74.776 170.418 74.414 171.595 C 74.052 172.772 73.552 173.500 73 173.500 C 72.448 173.500 71.948 172.772 71.586 171.595 C 71.224 170.418 71 168.793 71 167 C 71 165.207 71.224 163.582 71.586 162.405 C 71.948 161.228 72.448 160.500 73 160.500 Z " transform="matrix(-0.27916115522384644, 0.3541412353515625, 0.28331297636032104, 0.34895142912864685, 24.7, -63)"/>
      <path id="ID0.7823918559588492" fill="#00FF55" stroke="#000000" stroke-width="2" d="M 73 160.500 C 73.552 160.500 74.052 161.228 74.414 162.405 C 74.776 163.582 75 165.207 75 167 C 75 168.793 74.776 170.418 74.414 171.595 C 74.052 172.772 73.552 173.500 73 173.500 C 72.448 173.500 71.948 172.772 71.586 171.595 C 71.224 170.418 71 168.793 71 167 C 71 165.207 71.224 163.582 71.586 162.405 C 71.948 161.228 72.448 160.500 73 160.500 Z " transform="matrix(0.020834989845752716, 0.49649250507354736, 0.3971940279006958, -0.026043735444545746, -17.2, -7.05)"/>
      <path id="ID0.7823918559588492" fill="#00FF55" stroke="#000000" stroke-width="2" d="M 73 160.500 C 73.552 160.500 74.052 161.228 74.414 162.405 C 74.776 163.582 75 165.207 75 167 C 75 168.793 74.776 170.418 74.414 171.595 C 74.052 172.772 73.552 173.500 73 173.500 C 72.448 173.500 71.948 172.772 71.586 171.595 C 71.224 170.418 71 168.793 71 167 C 71 165.207 71.224 163.582 71.586 162.405 C 71.948 161.228 72.448 160.500 73 160.500 Z " transform="matrix(0.39541947841644287, 0.05362815409898758, 0.04290252551436424, -0.4942743480205536, 18.2, 108.4)"/>
      <path id="ID0.7823918559588492" fill="#00FF55" stroke="#000000" stroke-width="2" d="M 73 160.500 C 73.552 160.500 74.052 161.228 74.414 162.405 C 74.776 163.582 75 165.207 75 167 C 75 168.793 74.776 170.418 74.414 171.595 C 74.052 172.772 73.552 173.500 73 173.500 C 72.448 173.500 71.948 172.772 71.586 171.595 C 71.224 170.418 71 168.793 71 167 C 71 165.207 71.224 163.582 71.586 162.405 C 71.948 161.228 72.448 160.500 73 160.500 Z " transform="matrix(0.24697262048721313, 0.3897148668766022, 0.3117718994617462, -0.3087157607078552, -18.5, 51.05)"/>
      <path id="ID0.7823918559588492" fill="#00FF55" stroke="#000000" stroke-width="2" d="M 73 160.500 C 73.552 160.500 74.052 161.228 74.414 162.405 C 74.776 163.582 75 165.207 75 167 C 75 168.793 74.776 170.418 74.414 171.595 C 74.052 172.772 73.552 173.500 73 173.500 C 72.448 173.500 71.948 172.772 71.586 171.595 C 71.224 170.418 71 168.793 71 167 C 71 165.207 71.224 163.582 71.586 162.405 C 71.948 161.228 72.448 160.500 73 160.500 Z " transform="matrix(-0.24697262048721313, 0.3897148668766022, -0.3117718994617462, -0.3087157607078552, 127.4, 51.5)"/>
      <path id="ID0.7823918559588492" fill="#00FF55" stroke="#000000" stroke-width="2" d="M 73 160.500 C 73.552 160.500 74.052 161.228 74.414 162.405 C 74.776 163.582 75 165.207 75 167 C 75 168.793 74.776 170.418 74.414 171.595 C 74.052 172.772 73.552 173.500 73 173.500 C 72.448 173.500 71.948 172.772 71.586 171.595 C 71.224 170.418 71 168.793 71 167 C 71 165.207 71.224 163.582 71.586 162.405 C 71.948 161.228 72.448 160.500 73 160.500 Z " transform="matrix(-0.020834989845752716, 0.49649250507354736, -0.3971940279006958, -0.026043737307190895, 126.25, -6.75)"/>
      <path id="ID0.7823918559588492" fill="#00FF55" stroke="#000000" stroke-width="2" d="M 73 160.500 C 73.552 160.500 74.052 161.228 74.414 162.405 C 74.776 163.582 75 165.207 75 167 C 75 168.793 74.776 170.418 74.414 171.595 C 74.052 172.772 73.552 173.500 73 173.500 C 72.448 173.500 71.948 172.772 71.586 171.595 C 71.224 170.418 71 168.793 71 167 C 71 165.207 71.224 163.582 71.586 162.405 C 71.948 161.228 72.448 160.500 73 160.500 Z " transform="matrix(0.27916115522384644, 0.3541412353515625, -0.28331297636032104, 0.34895142912864685, 84.05, -62.75)"/>
    </g>
    <g id="ID0.7572521781548858">
      <path id="ID0.48384885350242257" fill="#FFFF00" stroke="#000000" stroke-width="2" d="M 74.500 173.500 C 75.328 173.500 76.078 173.836 76.621 174.379 C 77.164 174.922 77.500 175.672 77.500 176.500 C 77.500 177.328 77.164 178.078 76.621 178.621 C 76.078 179.164 75.328 179.500 74.500 179.500 C 73.672 179.500 72.922 179.164 72.379 178.621 C 71.836 178.078 71.500 177.328 71.500 176.500 C 71.500 175.672 71.836 174.922 72.379 174.379 C 72.922 173.836 73.672 173.500 74.500 173.500 Z " transform="matrix(-0.39774009585380554, 0, 0, 0.4971751272678375, 93.95, -38.2)"/>
      <path id="ID0.7823918559588492" fill="#00FF55" stroke="#000000" stroke-width="2" d="M 73 160.500 C 73.552 160.500 74.052 161.228 74.414 162.405 C 74.776 163.582 75 165.207 75 167 C 75 168.793 74.776 170.418 74.414 171.595 C 74.052 172.772 73.552 173.500 73 173.500 C 72.448 173.500 71.948 172.772 71.586 171.595 C 71.224 170.418 71 168.793 71 167 C 71 165.207 71.224 163.582 71.586 162.405 C 71.948 161.228 72.448 160.500 73 160.500 Z " transform="matrix(-0.39774009585380554, 0, 0, 0.4971751272678375, 93.55, -38.45)"/>
      <path id="ID0.7823918559588492" fill="#00FF55" stroke="#000000" stroke-width="2" d="M 73 160.500 C 73.552 160.500 74.052 161.228 74.414 162.405 C 74.776 163.582 75 165.207 75 167 C 75 168.793 74.776 170.418 74.414 171.595 C 74.052 172.772 73.552 173.500 73 173.500 C 72.448 173.500 71.948 172.772 71.586 171.595 C 71.224 170.418 71 168.793 71 167 C 71 165.207 71.224 163.582 71.586 162.405 C 71.948 161.228 72.448 160.500 73 160.500 Z " transform="matrix(-0.27916115522384644, 0.3541412353515625, 0.28331297636032104, 0.34895142912864685, 34.6, -38.25)"/>
      <path id="ID0.7823918559588492" fill="#00FF55" stroke="#000000" stroke-width="2" d="M 73 160.500 C 73.552 160.500 74.052 161.228 74.414 162.405 C 74.776 163.582 75 165.207 75 167 C 75 168.793 74.776 170.418 74.414 171.595 C 74.052 172.772 73.552 173.500 73 173.500 C 72.448 173.500 71.948 172.772 71.586 171.595 C 71.224 170.418 71 168.793 71 167 C 71 165.207 71.224 163.582 71.586 162.405 C 71.948 161.228 72.448 160.500 73 160.500 Z " transform="matrix(0.020834989845752716, 0.49649250507354736, 0.3971940279006958, -0.026043735444545746, -7.25, 17.65)"/>
      <path id="ID0.7823918559588492" fill="#00FF55" stroke="#000000" stroke-width="2" d="M 73 160.500 C 73.552 160.500 74.052 161.228 74.414 162.405 C 74.776 163.582 75 165.207 75 167 C 75 168.793 74.776 170.418 74.414 171.595 C 74.052 172.772 73.552 173.500 73 173.500 C 72.448 173.500 71.948 172.772 71.586 171.595 C 71.224 170.418 71 168.793 71 167 C 71 165.207 71.224 163.582 71.586 162.405 C 71.948 161.228 72.448 160.500 73 160.500 Z " transform="matrix(0.39541947841644287, 0.05362815409898758, 0.04290252551436424, -0.4942743480205536, 28.1, 133.15)"/>
      <path id="ID0.7823918559588492" fill="#00FF55" stroke="#000000" stroke-width="2" d="M 73 160.500 C 73.552 160.500 74.052 161.228 74.414 162.405 C 74.776 163.582 75 165.207 75 167 C 75 168.793 74.776 170.418 74.414 171.595 C 74.052 172.772 73.552 173.500 73 173.500 C 72.448 173.500 71.948 172.772 71.586 171.595 C 71.224 170.418 71 168.793 71 167 C 71 165.207 71.224 163.582 71.586 162.405 C 71.948 161.228 72.448 160.500 73 160.500 Z " transform="matrix(0.24697262048721313, 0.3897148668766022, 0.3117718994617462, -0.3087157607078552, -8.65, 75.8)"/>
    </g>
    <g id="ID0.7572521781548858">
      <path id="ID0.48384885350242257" fill="#FFFF00" stroke="#000000" stroke-width="2" d="M 74.500 173.500 C 75.328 173.500 76.078 173.836 76.621 174.379 C 77.164 174.922 77.500 175.672 77.500 176.500 C 77.500 177.328 77.164 178.078 76.621 178.621 C 76.078 179.164 75.328 179.500 74.500 179.500 C 73.672 179.500 72.922 179.164 72.379 178.621 C 71.836 178.078 71.500 177.328 71.500 176.500 C 71.500 175.672 71.836 174.922 72.379 174.379 C 72.922 173.836 73.672 173.500 74.500 173.500 Z " transform="matrix(-0.39774009585380554, 0, 0, 0.4265536665916443, 45.95, -41.55)"/>
      <path id="ID0.7823918559588492" fill="#00FF55" stroke="#000000" stroke-width="2" d="M 73 160.500 C 73.552 160.500 74.052 161.228 74.414 162.405 C 74.776 163.582 75 165.207 75 167 C 75 168.793 74.776 170.418 74.414 171.595 C 74.052 172.772 73.552 173.500 73 173.500 C 72.448 173.500 71.948 172.772 71.586 171.595 C 71.224 170.418 71 168.793 71 167 C 71 165.207 71.224 163.582 71.586 162.405 C 71.948 161.228 72.448 160.500 73 160.500 Z " transform="matrix(-0.39774009585380554, 0, 0, 0.4265536665916443, 45.55, -41.75)"/>
      <path id="ID0.7823918559588492" fill="#00FF55" stroke="#000000" stroke-width="2" d="M 73 160.500 C 73.552 160.500 74.052 161.228 74.414 162.405 C 74.776 163.582 75 165.207 75 167 C 75 168.793 74.776 170.418 74.414 171.595 C 74.052 172.772 73.552 173.500 73 173.500 C 72.448 173.500 71.948 172.772 71.586 171.595 C 71.224 170.418 71 168.793 71 167 C 71 165.207 71.224 163.582 71.586 162.405 C 71.948 161.228 72.448 160.500 73 160.500 Z " transform="matrix(-0.27916115522384644, 0.3038370907306671, 0.28331297636032104, 0.2993844747543335, -13.45, -41.6)"/>
      <path id="ID0.7823918559588492" fill="#00FF55" stroke="#000000" stroke-width="2" d="M 73 160.500 C 73.552 160.500 74.052 161.228 74.414 162.405 C 74.776 163.582 75 165.207 75 167 C 75 168.793 74.776 170.418 74.414 171.595 C 74.052 172.772 73.552 173.500 73 173.500 C 72.448 173.500 71.948 172.772 71.586 171.595 C 71.224 170.418 71 168.793 71 167 C 71 165.207 71.224 163.582 71.586 162.405 C 71.948 161.228 72.448 160.500 73 160.500 Z " transform="matrix(0.020834989845752716, 0.4259680211544037, 0.3971940279006958, -0.02234434150159359, -55.35, 6.35)"/>
      <path id="ID0.7823918559588492" fill="#00FF55" stroke="#000000" stroke-width="2" d="M 73 160.500 C 73.552 160.500 74.052 161.228 74.414 162.405 C 74.776 163.582 75 165.207 75 167 C 75 168.793 74.776 170.418 74.414 171.595 C 74.052 172.772 73.552 173.500 73 173.500 C 72.448 173.500 71.948 172.772 71.586 171.595 C 71.224 170.418 71 168.793 71 167 C 71 165.207 71.224 163.582 71.586 162.405 C 71.948 161.228 72.448 160.500 73 160.500 Z " transform="matrix(0.39541947841644287, 0.046010520309209824, 0.04290252551436424, -0.4240649342536926, -19.95, 105.45)"/>
      <path id="ID0.7823918559588492" fill="#00FF55" stroke="#000000" stroke-width="2" d="M 73 160.500 C 73.552 160.500 74.052 161.228 74.414 162.405 C 74.776 163.582 75 165.207 75 167 C 75 168.793 74.776 170.418 74.414 171.595 C 74.052 172.772 73.552 173.500 73 173.500 C 72.448 173.500 71.948 172.772 71.586 171.595 C 71.224 170.418 71 168.793 71 167 C 71 165.207 71.224 163.582 71.586 162.405 C 71.948 161.228 72.448 160.500 73 160.500 Z " transform="matrix(0.24697262048721313, 0.3343576490879059, 0.3117718994617462, -0.26486408710479736, -56.65, 56.25)"/>
      <path id="ID0.7823918559588492" fill="#00FF55" stroke="#000000" stroke-width="2" d="M 73 160.500 C 73.552 160.500 74.052 161.228 74.414 162.405 C 74.776 163.582 75 165.207 75 167 C 75 168.793 74.776 170.418 74.414 171.595 C 74.052 172.772 73.552 173.500 73 173.500 C 72.448 173.500 71.948 172.772 71.586 171.595 C 71.224 170.418 71 168.793 71 167 C 71 165.207 71.224 163.582 71.586 162.405 C 71.948 161.228 72.448 160.500 73 160.500 Z " transform="matrix(-0.24697262048721313, 0.3343576490879059, -0.3117718994617462, -0.26486408710479736, 89.25, 56.6)"/>
      <path id="ID0.7823918559588492" fill="#00FF55" stroke="#000000" stroke-width="2" d="M 73 160.500 C 73.552 160.500 74.052 161.228 74.414 162.405 C 74.776 163.582 75 165.207 75 167 C 75 168.793 74.776 170.418 74.414 171.595 C 74.052 172.772 73.552 173.500 73 173.500 C 72.448 173.500 71.948 172.772 71.586 171.595 C 71.224 170.418 71 168.793 71 167 C 71 165.207 71.224 163.582 71.586 162.405 C 71.948 161.228 72.448 160.500 73 160.500 Z " transform="matrix(-0.020834989845752716, 0.4259680211544037, -0.3971940279006958, -0.02234434336423874, 88.1, 6.6)"/>
      <path id="ID0.7823918559588492" fill="#00FF55" stroke="#000000" stroke-width="2" d="M 73 160.500 C 73.552 160.500 74.052 161.228 74.414 162.405 C 74.776 163.582 75 165.207 75 167 C 75 168.793 74.776 170.418 74.414 171.595 C 74.052 172.772 73.552 173.500 73 173.500 C 72.448 173.500 71.948 172.772 71.586 171.595 C 71.224 170.418 71 168.793 71 167 C 71 165.207 71.224 163.582 71.586 162.405 C 71.948 161.228 72.448 160.500 73 160.500 Z " transform="matrix(0.27916115522384644, 0.3038370907306671, -0.28331297636032104, 0.2993844747543335, 46, -41.4)"/>
    </g>
    <g id="ID0.7572521781548858">
      <path id="ID0.48384885350242257" fill="#FFFF00" stroke="#000000" stroke-width="2" d="M 74.500 173.500 C 75.328 173.500 76.078 173.836 76.621 174.379 C 77.164 174.922 77.500 175.672 77.500 176.500 C 77.500 177.328 77.164 178.078 76.621 178.621 C 76.078 179.164 75.328 179.500 74.500 179.500 C 73.672 179.500 72.922 179.164 72.379 178.621 C 71.836 178.078 71.500 177.328 71.500 176.500 C 71.500 175.672 71.836 174.922 72.379 174.379 C 72.922 173.836 73.672 173.500 74.500 173.500 Z " transform="matrix(-0.3969521224498749, 0.0250241756439209, 0.03128021955490112, 0.4961901605129242, 102.55, -46.4)"/>
      <path id="ID0.7823918559588492" fill="#00FF55" stroke="#000000" stroke-width="2" d="M 73 160.500 C 73.552 160.500 74.052 161.228 74.414 162.405 C 74.776 163.582 75 165.207 75 167 C 75 168.793 74.776 170.418 74.414 171.595 C 74.052 172.772 73.552 173.500 73 173.500 C 72.448 173.500 71.948 172.772 71.586 171.595 C 71.224 170.418 71 168.793 71 167 C 71 165.207 71.224 163.582 71.586 162.405 C 71.948 161.228 72.448 160.500 73 160.500 Z " transform="matrix(-0.3969521224498749, 0.0250241756439209, 0.03128021955490112, 0.4961901605129242, 102.15, -46.65)"/>
      <path id="ID0.7823918559588492" fill="#00FF55" stroke="#000000" stroke-width="2" d="M 73 160.500 C 73.552 160.500 74.052 161.228 74.414 162.405 C 74.776 163.582 75 165.207 75 167 C 75 168.793 74.776 170.418 74.414 171.595 C 74.052 172.772 73.552 173.500 73 173.500 C 72.448 173.500 71.948 172.772 71.586 171.595 C 71.224 170.418 71 168.793 71 167 C 71 165.207 71.224 163.582 71.586 162.405 C 71.948 161.228 72.448 160.500 73 160.500 Z " transform="matrix(-0.25632697343826294, 0.37100329995155334, 0.30470627546310425, 0.33043521642684937, 43.35, -42.75)"/>
      <path id="ID0.7823918559588492" fill="#00FF55" stroke="#000000" stroke-width="2" d="M 73 160.500 C 73.552 160.500 74.052 161.228 74.414 162.405 C 74.776 163.582 75 165.207 75 167 C 75 168.793 74.776 170.418 74.414 171.595 C 74.052 172.772 73.552 173.500 73 173.500 C 72.448 173.500 71.948 172.772 71.586 171.595 C 71.224 170.418 71 168.793 71 167 C 71 165.207 71.224 163.582 71.586 162.405 C 71.948 161.228 72.448 160.500 73 160.500 Z " transform="matrix(0.052030984312295914, 0.4941980242729187, 0.3947685658931732, -0.05098195746541023, 5, 15.65)"/>
      <path id="ID0.7823918559588492" fill="#00FF55" stroke="#000000" stroke-width="2" d="M 73 160.500 C 73.552 160.500 74.052 161.228 74.414 162.405 C 74.776 163.582 75 165.207 75 167 C 75 168.793 74.776 170.418 74.414 171.595 C 74.052 172.772 73.552 173.500 73 173.500 C 72.448 173.500 71.948 172.772 71.586 171.595 C 71.224 170.418 71 168.793 71 167 C 71 165.207 71.224 163.582 71.586 162.405 C 71.948 161.228 72.448 160.500 73 160.500 Z " transform="matrix(0.39801016449928284, 0.028643736615777016, 0.011719814501702785, -0.49599435925483704, 47.65, 128.7)"/>
      <path id="ID0.7823918559588492" fill="#00FF55" stroke="#000000" stroke-width="2" d="M 73 160.500 C 73.552 160.500 74.052 161.228 74.414 162.405 C 74.776 163.582 75 165.207 75 167 C 75 168.793 74.776 170.418 74.414 171.595 C 74.052 172.772 73.552 173.500 73 173.500 C 72.448 173.500 71.948 172.772 71.586 171.595 C 71.224 170.418 71 168.793 71 167 C 71 165.207 71.224 163.582 71.586 162.405 C 71.948 161.228 72.448 160.500 73 160.500 Z " transform="matrix(0.2710025906562805, 0.37340429425239563, 0.2917311191558838, -0.3277195692062378, 7.3, 73.75)"/>
    </g>
  </g>
</svg>